<?xml version="1.0" standalone="no"?><!-- Generator: Gravit.io --><svg xmlns="http://www.w3.org/2000/svg" xmlns:xlink="http://www.w3.org/1999/xlink" style="isolation:isolate" viewBox="0 0 30 30" width="30" height="30"><defs><clipPath id="_clipPath_vYnz3cTvvAb3UfjSf7fVZVKIi2DvL3z2"><rect width="30" height="30"/></clipPath></defs><g clip-path="url(#_clipPath_vYnz3cTvvAb3UfjSf7fVZVKIi2DvL3z2)"><path d="M 11.652 13.789 L 11.652 7.685 C 11.652 5.837 13.152 4.337 15 4.337 L 15 4.337 C 16.847 4.337 18.347 5.837 18.347 7.685 L 18.347 13.789 C 18.347 15.636 16.847 17.136 15 17.136 L 15 17.136 C 13.152 17.136 11.652 15.636 11.652 13.789 Z" style="stroke:none;fill:#FFFFFF;stroke-miterlimit:10;"/><path d=" M 15 20.78 C 11.478 20.776 8.624 17.922 8.62 14.4 C 8.62 14.076 8.793 13.776 9.074 13.614 C 9.355 13.452 9.701 13.452 9.982 13.614 C 10.262 13.776 10.435 14.076 10.435 14.4 C 10.435 16.921 12.479 18.965 15 18.965 C 17.521 18.965 19.565 16.921 19.565 14.4 C 19.565 13.899 19.971 13.492 20.472 13.492 C 20.973 13.492 21.38 13.899 21.38 14.4 C 21.376 17.922 18.522 20.776 15 20.78 L 15 20.78 Z " fill="rgb(255,255,255)"/><path d=" M 15 25.663 C 14.499 25.663 14.092 25.256 14.092 24.755 L 14.092 19.872 C 14.092 19.371 14.499 18.965 15 18.965 C 15.501 18.965 15.908 19.371 15.908 19.872 L 15.908 24.755 C 15.908 25.256 15.501 25.663 15 25.663 L 15 25.663 Z " fill="rgb(255,255,255)"/><path d=" M 18.777 25.663 L 11.223 25.663 C 10.722 25.663 10.315 25.256 10.315 24.755 C 10.315 24.254 10.722 23.847 11.223 23.847 L 18.776 23.847 C 19.278 23.847 19.684 24.254 19.684 24.755 C 19.684 25.256 19.278 25.663 18.776 25.663 L 18.777 25.663 Z " fill="rgb(255,255,255)"/></g></svg>