<?xml version="1.0" standalone="no"?><!-- Generator: Gravit.io --><svg xmlns="http://www.w3.org/2000/svg" xmlns:xlink="http://www.w3.org/1999/xlink" style="isolation:isolate" viewBox="0 0 19 24.544" width="19" height="24.544"><defs><clipPath id="_clipPath_KA0foO1wXnQfZqvwDJ34La78LRaGBM8X"><rect width="19" height="24.544"/></clipPath></defs><g clip-path="url(#_clipPath_KA0foO1wXnQfZqvwDJ34La78LRaGBM8X)"><clipPath id="_clipPath_crukwFotRQMesuVHC5vJcfoZFxbPqJjR"><rect x="0" y="0.772" width="19" height="23" transform="matrix(1,0,0,1,0,0)" fill="rgb(255,255,255)"/></clipPath><g clip-path="url(#_clipPath_crukwFotRQMesuVHC5vJcfoZFxbPqJjR)"><g id="Group"><clipPath id="_clipPath_ZpALoMpNGB2C5ZFlGQYXSPhFQoyDX4Qn"><rect x="0" y="0.772" width="16.366" height="23" transform="matrix(1,0,0,1,0,0)" fill="rgb(255,255,255)"/></clipPath><g clip-path="url(#_clipPath_ZpALoMpNGB2C5ZFlGQYXSPhFQoyDX4Qn)"><g id="Group"><g id="Group"><clipPath id="_clipPath_zc8PCOfGu7MpDAHnpYdkdByis5sfhsBZ"><rect x="0" y="1.697" width="16.366" height="21.149" transform="matrix(1,0,0,1,0,0)" fill="rgb(255,255,255)"/></clipPath><g clip-path="url(#_clipPath_zc8PCOfGu7MpDAHnpYdkdByis5sfhsBZ)"><g id="Group"><g id="Group"><g id="Group"><path d=" M 2.912 1.697 L 2.912 1.697 C 4.519 1.697 5.824 3.002 5.824 4.61 L 5.824 19.934 C 5.824 21.541 4.519 22.847 2.912 22.847 L 2.912 22.847 C 1.304 22.847 0 21.541 0 19.934 L 0 4.61 C 0 3.002 1.304 1.697 2.912 1.697 Z " fill="rgb(187,187,187)"/><path d=" M 13.454 1.697 L 13.454 1.697 C 15.061 1.697 16.366 3.002 16.366 4.61 L 16.366 19.934 C 16.366 21.541 15.061 22.847 13.454 22.847 L 13.454 22.847 C 11.846 22.847 10.542 21.541 10.542 19.934 L 10.542 4.61 C 10.542 3.002 11.846 1.697 13.454 1.697 Z " fill="rgb(187,187,187)"/></g></g></g></g></g></g></g></g></g></g></svg>