<?xml version="1.0" standalone="no"?><!-- Generator: Gravit.io --><svg xmlns="http://www.w3.org/2000/svg" xmlns:xlink="http://www.w3.org/1999/xlink" style="isolation:isolate" viewBox="0 0 30 30" width="30" height="30"><defs><clipPath id="_clipPath_SZWCQV9066huAXIpxd10niEO29D5KAE1"><rect width="30" height="30"/></clipPath></defs><g clip-path="url(#_clipPath_SZWCQV9066huAXIpxd10niEO29D5KAE1)"><path d=" M 27.422 13.745 L 22.997 8.327 C 22.749 8.022 22.376 7.846 21.982 7.846 L 21.981 7.846 C 21.588 7.846 21.215 8.023 20.967 8.328 L 16.543 13.745 C 16.223 14.137 16.157 14.678 16.374 15.136 C 16.591 15.593 17.052 15.885 17.559 15.885 L 19.348 15.885 C 18.861 18.884 16.214 21.049 13.178 20.933 C 10.142 20.817 7.668 18.456 7.411 15.428 C 7.155 12.401 9.195 9.657 12.168 9.031 C 13.316 8.81 14.18 7.857 14.288 6.693 C 14.346 5.894 14.027 5.113 13.425 4.584 C 12.844 4.065 12.054 3.847 11.289 3.995 C 5.389 5.136 1.461 10.756 2.418 16.689 C 3.153 21.645 7.157 25.47 12.141 25.979 C 12.568 26.026 12.997 26.05 13.427 26.051 C 16.143 26.057 18.766 25.057 20.788 23.244 C 22.917 21.353 24.243 18.72 24.494 15.884 L 26.406 15.884 C 26.912 15.884 27.373 15.593 27.591 15.136 C 27.808 14.678 27.742 14.137 27.422 13.745 L 27.422 13.745 Z " fill="rgb(187,187,187)"/></g></svg>