<?xml version="1.0" standalone="no"?><!-- Generator: Gravit.io --><svg xmlns="http://www.w3.org/2000/svg" xmlns:xlink="http://www.w3.org/1999/xlink" style="isolation:isolate" viewBox="0 0 47 30" width="47" height="30"><defs><clipPath id="_clipPath_VnMTLKfNYL0dcdxtKgrqamCASB0OOLYK"><rect width="47" height="30"/></clipPath></defs><g clip-path="url(#_clipPath_VnMTLKfNYL0dcdxtKgrqamCASB0OOLYK)"><path d=" M 23.092 16.967 C 22.732 16.967 22.379 16.869 22.071 16.682 L 2.389 4.729 C 2.388 4.752 2.382 4.773 2.382 4.796 L 2.382 25.204 C 2.382 25.987 2.693 26.739 3.247 27.293 C 3.801 27.847 4.553 28.159 5.337 28.159 L 40.847 28.159 C 42.479 28.158 43.802 26.836 43.802 25.204 L 43.802 4.796 C 43.802 4.773 43.796 4.752 43.795 4.729 L 24.113 16.682 C 23.806 16.869 23.452 16.967 23.092 16.967 Z " fill="rgb(255,255,255)"/><path d=" M 40.953 1.852 C 40.917 1.851 40.883 1.841 40.847 1.841 L 5.337 1.841 C 5.3 1.841 5.267 1.851 5.231 1.852 L 23.092 12.699 L 40.953 1.852 Z " fill="rgb(255,255,255)"/></g></svg>